<?xml version="1.0" encoding="UTF-8"?>
<svg width="196px" height="196px" viewBox="0 0 196 196" version="1.1" xmlns="http://www.w3.org/2000/svg" xmlns:xlink="http://www.w3.org/1999/xlink">
    <!-- Generator: Sketch 49.3 (51167) - http://www.bohemiancoding.com/sketch -->
    <title>Combined Shape</title>
    <desc>Created with Sketch.</desc>
    <defs></defs>
    <g id="Page-1" stroke="none" stroke-width="1" fill="none" fill-rule="evenodd">
        <g id="I-dont-like-work" fill="#FFFFFF">
            <path d="M0,0 L196,0 L196,196 L0,196 L0,0 Z M35.0849561,29.8876098 L24.793522,29.8876098 L24.3537171,33.5379902 C24.7642037,34.0950792 25.5705046,34.5935198 26.7726439,35.0333268 L26.7726439,55.1324098 C25.5411841,55.6015373 24.7348832,56.0853178 24.3537171,56.5837659 L24.793522,60.2341463 L35.0849561,60.2341463 L35.524761,56.5837659 C35.0849539,56.0853178 34.278653,55.6015373 33.1058341,55.1324098 L33.1058341,35.0333268 C34.2493325,34.5935198 35.0556334,34.0950792 35.524761,33.5379902 L35.0849561,29.8876098 Z M59.4061659,29.008 L58.966361,32.3944976 C59.6114114,33.0688684 60.6082924,33.596629 61.9570341,33.9777951 L61.9570341,38.3318634 C60.7255743,38.0386587 59.494133,37.8920585 58.2626732,37.8920585 C55.4772283,37.8920585 53.1316258,38.6836994 51.2257951,40.2670049 C49.0560802,42.0555537 47.971239,45.1634771 47.971239,49.5908683 C47.971239,53.490491 48.6822498,56.2978841 50.1042927,58.0131317 C51.5263356,59.7283793 53.8206281,60.5859902 56.987239,60.5859902 C57.9841351,60.5859902 58.9956762,60.40274 60.0218927,60.0362341 C61.0481092,59.6697282 61.8837301,59.2225978 62.5287805,58.6948293 C62.558101,59.0466749 62.7120311,59.4131753 62.9905756,59.7943415 C63.2691201,60.1755076 63.5549904,60.4393879 63.8481951,60.5859902 C66.5456785,60.5859902 68.774001,60.1168697 70.5332293,59.1786146 L70.5332293,55.7041561 C69.8002175,55.3523104 68.9939166,55.1030902 68.1143024,54.9564878 L68.1143024,28.5681951 C67.029445,28.4802337 65.7247036,28.4362537 64.200039,28.4362537 C62.6753745,28.4362537 61.0774327,28.6268339 59.4061659,29.008 Z M57.9108293,56.0999805 C56.6793695,56.0999805 55.7704485,55.5868799 55.184039,54.5606634 C54.5976296,53.5344469 54.3044293,51.8412151 54.3044293,49.4809171 C54.3044293,47.1206191 54.6049596,45.3467572 55.2060293,44.159278 C55.8070989,42.9717989 56.78199,42.3780683 58.1307317,42.3780683 C59.4794734,42.3780683 60.7548948,42.5246685 61.9570341,42.8178732 L61.9570341,54.6046439 C60.9308176,55.6015399 59.5820962,56.0999805 57.9108293,56.0999805 Z M74.8433171,57.8152195 C76.514584,59.6624092 79.0874168,60.5859902 82.5618927,60.5859902 C86.0363686,60.5859902 88.7191515,59.5524591 90.610322,57.4853659 C92.5014924,55.4182726 93.4470634,52.5155894 93.4470634,48.7772293 C93.4470634,45.0388691 92.6041125,42.2901161 90.9181854,40.5308878 C89.2322582,38.7716595 86.6447654,37.8920585 83.1556293,37.8920585 C79.6664931,37.8920585 76.9910402,38.8816096 75.1291902,40.8607415 C73.2673403,42.8398733 72.3364293,45.6985764 72.3364293,49.4369366 C72.3364293,53.1752967 73.1720502,55.9680298 74.8433171,57.8152195 Z M78.6696195,49.0631024 C78.6696195,46.6295033 79.0067999,44.9069514 79.6811707,43.8953951 C80.3555416,42.8838388 81.3964027,42.3780683 82.8037854,42.3780683 C85.6771916,42.3780683 87.1138732,44.6650308 87.1138732,49.2390244 C87.1138732,51.6726236 86.7693628,53.4244955 86.0803317,54.4946927 C85.3913006,55.5648899 84.3284495,56.0999805 82.8917463,56.0999805 C80.076981,56.0999805 78.6696195,53.7543779 78.6696195,49.0631024 Z M96.1298732,38.2439024 L95.6900683,41.6304 C96.2764777,42.2754504 97.0827786,42.7738909 98.1089951,43.1257366 L98.1089951,55.3523122 C96.9068558,55.7921193 96.1005549,56.2905598 95.6900683,56.8476488 L96.1298732,60.2341463 L106.245385,60.2341463 L106.68519,56.8476488 C106.216063,56.2905598 105.409762,55.7921193 104.266263,55.3523122 L104.266263,44.0493268 C105.585685,43.1110717 106.905086,42.6419512 108.224507,42.6419512 C109.543929,42.6419512 110.46018,42.9131615 110.973288,43.4555902 C111.486396,43.998019 111.742946,45.0608701 111.742946,46.6441756 L111.742946,55.3523122 C110.540807,55.7921193 109.734506,56.2905598 109.32402,56.8476488 L109.763824,60.2341463 L119.879337,60.2341463 L120.319141,56.8476488 C119.850014,56.2905598 119.043713,55.7921193 117.900215,55.3523122 L117.900215,46.9080585 C117.900215,43.5948452 117.321144,41.2639027 116.162985,39.915161 C115.004827,38.5664193 112.989075,37.8920585 110.115668,37.8920585 C109.00149,37.8920585 107.836019,38.0899688 106.61922,38.4857951 C105.40242,38.8816215 104.427529,39.387392 103.694517,40.003122 L103.694517,37.8040976 C102.844223,37.7454566 101.774042,37.7161366 100.483941,37.7161366 C99.1938407,37.7161366 97.7424991,37.8920568 96.1298732,38.2439024 Z M122.210302,32.8343024 C122.210302,33.5379938 122.393553,34.1610444 122.760059,34.7034732 C123.126564,35.2459019 123.588355,35.6050723 124.145444,35.7809951 C124.174764,35.9862384 124.189424,36.2061387 124.189424,36.4407024 C124.189424,37.9946874 123.705644,39.5779692 122.738068,41.1905951 L124.585249,42.3340878 C125.992631,41.3371918 127.194753,39.9958003 128.191649,38.3098732 C129.188545,36.623946 129.686985,34.798774 129.686985,32.8343024 C129.686985,30.6059466 128.440884,29.4917854 125.948644,29.4917854 C123.456404,29.4917854 122.210302,30.6059466 122.210302,32.8343024 Z M140.0224,32.702361 L136.811824,32.702361 C135.492403,33.5526547 134.656782,35.1799164 134.304937,37.5841951 C132.838913,38.1412841 131.871352,38.6983647 131.402224,39.2554537 L131.88601,41.9382634 L133.865132,41.9382634 L133.865132,54.2967805 C133.865132,56.2319316 134.282942,57.7052632 135.118576,58.7168195 C135.954209,59.7283758 137.552151,60.2341463 139.912449,60.2341463 C142.272747,60.2341463 144.581699,59.6624057 146.839376,58.5189073 L145.519961,55.0884293 C144.376463,55.5282363 143.306281,55.7481366 142.309385,55.7481366 C141.312489,55.7481366 140.682109,55.5355664 140.418224,55.1104195 C140.15434,54.6852727 140.0224,54.0035819 140.0224,53.0653268 L140.0224,41.9382634 L146.31161,41.9382634 L146.31161,38.2439024 L140.0224,38.2439024 L140.0224,32.702361 Z M24.0018732,82.5494634 L23.5620683,85.935961 C24.1484777,86.5810114 24.9547786,87.0794519 25.9809951,87.4312976 L25.9809951,108.893776 C24.7788558,109.333583 23.9725549,109.832023 23.5620683,110.389112 L24.0018732,113.77561 L34.1173854,113.77561 L34.5571902,110.389112 C34.0880627,109.832023 33.2817618,109.333583 32.1382634,108.893776 L32.1382634,82.1096585 C31.1706878,82.0216971 29.9832265,81.9777171 28.5758439,81.9777171 C27.1684613,81.9777171 25.6438196,82.1682973 24.0018732,82.5494634 Z M36.8881561,91.7853659 L36.4483512,95.1718634 C37.0347607,95.8169138 37.8410615,96.3153543 38.867278,96.6672 L38.867278,108.893776 C37.6651387,109.333583 36.8588378,109.832023 36.4483512,110.389112 L36.8881561,113.77561 L47.0036683,113.77561 L47.4434732,110.389112 C46.9743456,109.832023 46.1680447,109.333583 45.0245463,108.893776 L45.0245463,91.345561 C44.0569708,91.2575996 42.8695095,91.2136195 41.4621268,91.2136195 C40.0547442,91.2136195 38.5301025,91.4041997 36.8881561,91.7853659 Z M38.2075707,85.4301854 C38.2075707,87.643881 39.4316821,88.7507122 41.8799415,88.7507122 C44.3282009,88.7507122 45.5523122,87.643881 45.5523122,85.4301854 C45.5523122,83.2164897 44.3282009,82.1096585 41.8799415,82.1096585 C39.4316821,82.1096585 38.2075707,83.2164897 38.2075707,85.4301854 Z M49.1147317,82.5494634 L48.6749268,85.935961 C49.2613363,86.5810114 50.0676371,87.0794519 51.0938537,87.4312976 L51.0938537,108.893776 C49.8917143,109.333583 49.0854134,109.832023 48.6749268,110.389112 L49.1147317,113.77561 L59.2302439,113.77561 L59.6700488,110.389112 C59.2009212,109.832023 58.3946204,109.333583 57.251122,108.893776 L57.251122,82.1096585 C56.2835464,82.0216971 55.0960851,81.9777171 53.6887024,81.9777171 C52.2813198,81.9777171 50.7566781,82.1682973 49.1147317,82.5494634 Z M65.4314927,113.77561 L72.4683707,113.77561 L72.9081756,110.389112 C72.1751638,109.538819 70.8997424,108.908438 69.0818732,108.497951 L64.112078,101.944859 L68.3342049,97.1070049 C70.1227537,96.6378773 71.339535,95.9928366 71.9845854,95.1718634 L71.5447805,91.7853659 L61.8690732,91.7853659 L61.4292683,95.1718634 C61.6345116,95.4943886 61.986352,95.8022489 62.4848,96.0954537 L57.6469463,102.384663 L65.4314927,113.77561 Z M84.6949463,114.127454 C86.4248542,114.127454 87.9714859,113.870903 89.3348878,113.357795 C90.6982897,112.844687 91.5485707,112.434206 91.8857561,112.126341 C92.2229415,111.818477 92.4794918,111.561926 92.6554146,111.356683 L91.336,107.838244 L90.7202732,108.190088 C90.3097866,108.424652 89.6500858,108.659212 88.7411512,108.893776 C87.8322166,109.128339 86.8793156,109.24562 85.8824195,109.24562 C84.0645503,109.24562 82.7378188,108.864459 81.9021854,108.102127 C81.0665519,107.339795 80.5901014,106.035053 80.4728195,104.187863 L90.0165854,104.187863 C92.0983389,104.187863 93.1392,103.132342 93.1392,101.021268 C93.1392,97.4148503 92.4135292,94.9153175 90.9621659,93.5225951 C89.5108025,92.1298727 87.4217502,91.433522 84.6949463,91.433522 C81.9681425,91.433522 79.5785599,92.2544828 77.5261268,93.8964293 C76.4705898,94.746723 75.6349689,95.9561743 75.019239,97.5248195 C74.4035091,99.0934648 74.0956488,100.962617 74.0956488,103.132332 C74.0956488,106.709429 74.9825797,109.436192 76.7564683,111.312702 C78.5303568,113.189213 81.1764897,114.127454 84.6949463,114.127454 Z M87.4657171,100.2736 L80.5168,100.537483 C80.7220433,98.866216 81.1325238,97.6787547 81.7482537,96.9750634 C82.3639836,96.2713721 83.2509145,95.9195317 84.4090732,95.9195317 C85.5672318,95.9195317 86.3808627,96.2493821 86.8499902,96.9090927 C87.3191178,97.5688033 87.553678,98.191854 87.553678,98.7782634 C87.553678,99.3646729 87.524358,99.8631134 87.4657171,100.2736 Z M24.5736195,164.436351 C24.5736195,166.650047 25.7977308,167.756878 28.2459902,167.756878 C30.6942496,167.756878 31.918361,166.650047 31.918361,164.436351 C31.918361,162.222656 30.6942496,161.115824 28.2459902,161.115824 C25.7977308,161.115824 24.5736195,162.222656 24.5736195,164.436351 Z M55.4039415,167.580956 L61.1214049,167.580956 L66.6189659,150.384585 C67.9677076,149.944778 68.8912886,149.387698 69.3897366,148.713327 L68.9499317,145.326829 L59.1862634,145.326829 L58.7464585,148.713327 C59.1862656,149.299736 60.0658666,149.827497 61.3852878,150.296624 L61.1214049,151.528078 C60.7402387,153.228665 60.0072379,156.556489 58.9223805,161.511649 L58.3066537,161.511649 L57.2071415,156.629815 L54.2604488,145.41479 L49.3346341,145.41479 L46.343961,156.717776 C45.9041539,158.359722 45.5229935,159.957664 45.2004683,161.511649 L44.5847415,161.511649 L42.0338732,150.296624 C43.2946535,149.856817 44.1889144,149.329057 44.7166829,148.713327 L44.276878,145.326829 L33.9854439,145.326829 L33.545639,148.713327 C34.0147666,149.329057 34.8797075,149.856817 36.1404878,150.296624 L41.6820293,167.580956 L47.9272585,167.580956 L49.9943415,160.588059 C50.5807509,158.682228 51.0205514,156.585846 51.3137561,154.298849 L51.9294829,154.298849 L52.0614244,155.35438 C52.3253086,157.465454 52.691809,159.224656 53.1609366,160.632039 L55.4039415,167.580956 Z M72.9081756,164.898146 C74.5794425,166.745336 77.1522753,167.668917 80.6267512,167.668917 C84.1012271,167.668917 86.7840101,166.635386 88.6751805,164.568293 C90.5663509,162.501199 91.511922,159.598516 91.511922,155.860156 C91.511922,152.121796 90.668971,149.373043 88.9830439,147.613815 C87.2971168,145.854586 84.7096239,144.974985 81.2204878,144.974985 C77.7313517,144.974985 75.0558987,145.964536 73.1940488,147.943668 C71.3321988,149.9228 70.4012878,152.781503 70.4012878,156.519863 C70.4012878,160.258224 71.2369087,163.050957 72.9081756,164.898146 Z M76.734478,156.146029 C76.734478,153.71243 77.0716584,151.989878 77.7460293,150.978322 C78.4204001,149.966766 79.4612613,149.460995 80.8686439,149.460995 C83.7420501,149.460995 85.1787317,151.747958 85.1787317,156.321951 C85.1787317,158.75555 84.8342213,160.507422 84.1451902,161.57762 C83.4561592,162.647817 82.393308,163.182907 80.9566049,163.182907 C78.1418396,163.182907 76.734478,160.837305 76.734478,156.146029 Z M106.949073,150.736429 C107.652764,150.736429 108.297805,150.780409 108.884215,150.868371 L109.016156,145.150907 C108.693631,145.004305 108.0999,144.931005 107.234946,144.931005 C106.369992,144.931005 105.409761,145.187555 104.354224,145.700663 C103.298687,146.213772 102.433746,146.866142 101.759376,147.657795 L101.759376,144.887024 C100.909082,144.828383 99.8389008,144.799063 98.5488,144.799063 C97.2586992,144.799063 95.8073577,144.974984 94.1947317,145.326829 L93.7549268,148.713327 C94.3413363,149.358377 95.1476371,149.856818 96.1738537,150.208663 L96.1738537,162.435239 C94.9717143,162.875046 94.1654134,163.373487 93.7549268,163.930576 L94.1947317,167.317073 L106.773151,167.317073 L107.212956,163.930576 C106.333342,163.138923 104.70608,162.523202 102.331122,162.083395 L102.331122,152.011863 C103.181416,151.16157 104.720717,150.736429 106.949073,150.736429 Z M110.731395,136.090927 L110.29159,139.477424 C110.878,140.122475 111.684301,140.620915 112.710517,140.972761 L112.710517,162.435239 C111.508378,162.875046 110.702077,163.373487 110.29159,163.930576 L110.731395,167.317073 L120.846907,167.317073 L121.286712,163.930576 C120.817585,163.373487 120.011284,162.875046 118.867785,162.435239 L118.867785,135.651122 C117.90021,135.563161 116.712749,135.51918 115.305366,135.51918 C113.897983,135.51918 112.373342,135.709761 110.731395,136.090927 Z M127.048156,167.317073 L134.085034,167.317073 L134.524839,163.930576 C133.791827,163.080282 132.516406,162.449901 130.698537,162.039415 L125.728741,155.486322 L129.950868,150.648468 C131.739417,150.179341 132.956198,149.5343 133.601249,148.713327 L133.161444,145.326829 L123.485737,145.326829 L123.045932,148.713327 C123.251175,149.035852 123.603015,149.343712 124.101463,149.636917 L119.26361,155.926127 L127.048156,167.317073 Z" id="Combined-Shape"></path>
        </g>
    </g>
</svg>